<?xml version="1.0" encoding="UTF-8" standalone="no" ?>
<!DOCTYPE svg PUBLIC "-//W3C//DTD SVG 1.1//EN" "http://www.w3.org/Graphics/SVG/1.1/DTD/svg11.dtd">
<svg xmlns="http://www.w3.org/2000/svg" xmlns:xlink="http://www.w3.org/1999/xlink" version="1.1" width="50" height="50" viewBox="0 0 500 500" xml:space="preserve">
<desc>Created with Fabric.js 5.3.0</desc>
<defs>
</defs>
<g transform="matrix(23.3478865967 0 0 23.3478865967 250 250)" id="OTwkVFaHmZSvp47GEoMSp"  >
<path style="stroke: none; stroke-width: 1; stroke-dasharray: none; stroke-linecap: butt; stroke-dashoffset: 0; stroke-linejoin: miter; stroke-miterlimit: 4; fill: rgb(0,0,0); fill-rule: nonzero; opacity: 1;" vector-effect="non-scaling-stroke"  transform=" translate(-11.9999200103, -12.0000000103)" d="M 3.39994 3.4 L 3.04469 3.0481 L 3.0489 3.04395 L 3.39994 3.4 Z M 3.39994 20.6 L 3.04804 20.9552 L 3.04389 20.951 L 3.39994 20.6 Z M 20.5999 20.6 L 20.9552 20.9519 L 20.951 20.9561 L 20.5999 20.6 Z M 20.5999 3.4 L 20.9518 3.04475 L 20.956 3.04896 L 20.5999 3.4 Z M 5.37327 8.08667 L 4.87337 8.09692 C 4.87062 7.96256 4.92206 7.83275 5.01611 7.73676 C 5.11016 7.64076 5.23888 7.58667 5.37327 7.58667 L 5.37327 8.08667 Z M 12.9066 16.4067 L 13.4066 16.4067 C 13.4066 16.6828 13.1827 16.9067 12.9066 16.9067 L 12.9066 16.4067 Z M 12.9066 13.4333 L 12.4066 13.4333 C 12.4066 13.2921 12.4663 13.1575 12.571 13.0627 C 12.6757 12.9679 12.8156 12.9218 12.9562 12.9358 L 12.9066 13.4333 Z M 16.3533 16.4067 L 16.3533 16.9067 C 16.1359 16.9067 15.9435 16.7663 15.8772 16.5593 L 16.3533 16.4067 Z M 18.7199 16.4067 L 19.2026 16.2762 C 19.2432 16.4264 19.2116 16.587 19.117 16.7106 C 19.0223 16.8342 18.8756 16.9067 18.7199 16.9067 L 18.7199 16.4067 Z M 15.2999 12.2333 L 15.0771 12.681 C 14.9142 12.5998 14.8081 12.4365 14.8004 12.2546 C 14.7926 12.0727 14.8844 11.901 15.0399 11.8063 L 15.2999 12.2333 Z M 17.1928 10.461 L 17.6019 10.7486 L 17.1928 10.461 Z M 18.2199 8.08 L 18.2199 7.58 C 18.3701 7.58 18.5123 7.6475 18.6073 7.76385 C 18.7023 7.88019 18.7399 8.03306 18.7098 8.18019 L 18.2199 8.08 Z M 16.0733 8.08 L 15.5921 7.94418 C 15.6529 7.72876 15.8494 7.58 16.0733 7.58 L 16.0733 8.08 Z M 12.9066 11.3733 L 12.9596 11.8705 C 12.8186 11.8856 12.6778 11.84 12.5723 11.7452 C 12.4668 11.6503 12.4066 11.5152 12.4066 11.3733 L 12.9066 11.3733 Z M 12.9066 8.08667 L 12.9066 7.58667 C 13.1827 7.58667 13.4066 7.81053 13.4066 8.08667 L 12.9066 8.08667 Z M 10.7533 8.08667 L 10.2533 8.08667 C 10.2533 7.81053 10.4771 7.58667 10.7533 7.58667 L 10.7533 8.08667 Z M 10.7533 13.8467 L 11.2533 13.8467 C 11.2533 14.0006 11.1823 14.146 11.061 14.2408 C 10.9396 14.3355 10.7814 14.3691 10.632 14.3317 L 10.7533 13.8467 Z M 7.6666 8.08667 L 7.6666 7.58667 C 7.939 7.58667 8.16127 7.80471 8.16651 8.07705 L 7.6666 8.08667 Z M 1.49994 11.6 C 1.49994 9.35073 1.49889 7.61455 1.67936 6.26617 C 1.86175 4.90342 2.23763 3.8629 3.04471 3.04813 L 3.75516 3.75187 C 3.16225 4.35043 2.83813 5.14658 2.67052 6.39883 C 2.50099 7.66545 2.49994 9.3226 2.49994 11.6 L 1.49994 11.6 Z M 1.49994 12.4 L 1.49994 11.6 L 2.49994 11.6 L 2.49994 12.4 L 1.49994 12.4 Z M 3.04389 20.951 C 2.23759 20.1332 1.86176 19.0917 1.67936 17.7288 C 1.49889 16.3805 1.49994 14.646 1.49994 12.4 L 2.49994 12.4 C 2.49994 14.674 2.50099 16.3295 2.67052 17.5962 C 2.83811 18.8483 3.16229 19.6468 3.75599 20.249 L 3.04389 20.951 Z M 11.5999 22.5 C 9.35067 22.5 7.61449 22.5011 6.26611 22.3206 C 4.90335 22.1382 3.86284 21.7623 3.04807 20.9552 L 3.75181 20.2448 C 4.35037 20.8377 5.14652 21.1618 6.39877 21.3294 C 7.66539 21.4989 9.32254 21.5 11.5999 21.5 L 11.5999 22.5 Z M 12.3999 22.5 L 11.5999 22.5 L 11.5999 21.5 L 12.3999 21.5 L 12.3999 22.5 Z M 20.951 20.9561 C 20.1332 21.7624 19.0916 22.1382 17.7288 22.3206 C 16.3804 22.5011 14.6459 22.5 12.3999 22.5 L 12.3999 21.5 C 14.674 21.5 16.3295 21.4989 17.5961 21.3294 C 18.8483 21.1618 19.6467 20.8376 20.2489 20.2439 L 20.951 20.9561 Z M 22.4999 12.4 C 22.4999 14.6493 22.501 16.3855 22.3205 17.7338 C 22.1381 19.0966 21.7623 20.1371 20.9552 20.9519 L 20.2447 20.2481 C 20.8376 19.6496 21.1618 18.8534 21.3294 17.6012 C 21.4989 16.3345 21.4999 14.6774 21.4999 12.4 L 22.4999 12.4 Z M 22.4999 11.6 L 22.4999 12.4 L 21.4999 12.4 L 21.4999 11.6 L 22.4999 11.6 Z M 20.956 3.04896 C 21.7623 3.86678 22.1381 4.90834 22.3205 6.27117 C 22.501 7.61954 22.4999 9.35404 22.4999 11.6 L 21.4999 11.6 C 21.4999 9.32596 21.4989 7.67046 21.3294 6.40383 C 21.1618 5.15166 20.8376 4.35322 20.2439 3.75104 L 20.956 3.04896 Z M 12.3999 1.5 C 14.6492 1.5 16.3854 1.49895 17.7338 1.67942 C 19.0965 1.86181 20.137 2.23769 20.9518 3.04478 L 20.2481 3.75522 C 19.6495 3.16231 18.8534 2.83819 17.6011 2.67058 C 16.3345 2.50105 14.6773 2.5 12.3999 2.5 L 12.3999 1.5 Z M 11.5999 1.5 L 12.3999 1.5 L 12.3999 2.5 L 11.5999 2.5 L 11.5999 1.5 Z M 3.0489 3.04395 C 3.86672 2.23765 4.90828 1.86183 6.27111 1.67942 C 7.61948 1.49895 9.35398 1.5 11.5999 1.5 L 11.5999 2.5 C 9.3259 2.5 7.67039 2.50105 6.40377 2.67058 C 5.1516 2.83817 4.35316 3.16235 3.75098 3.75605 L 3.0489 3.04395 Z M 12.6399 16.9067 C 10.2377 16.9067 8.30046 16.0798 6.95797 14.5232 C 5.62543 12.9782 4.92825 10.7719 4.87337 8.09692 L 5.87317 8.07641 C 5.92496 10.6014 6.5811 12.5551 7.71523 13.8701 C 8.83941 15.1735 10.4822 15.9067 12.6399 15.9067 L 12.6399 16.9067 Z M 12.6466 16.9067 L 12.6399 16.9067 L 12.6399 15.9067 L 12.6466 15.9067 L 12.6466 16.9067 Z M 12.9066 16.9067 L 12.6466 16.9067 L 12.6466 15.9067 L 12.9066 15.9067 L 12.9066 16.9067 Z M 13.4066 13.4333 L 13.4066 16.4067 L 12.4066 16.4067 L 12.4066 13.4333 L 13.4066 13.4333 Z M 15.8772 16.5593 C 15.4192 15.1312 14.2955 14.0741 12.857 13.9309 L 12.9562 12.9358 C 14.8643 13.1259 16.274 14.5221 16.8294 16.254 L 15.8772 16.5593 Z M 18.7199 16.9067 L 16.3533 16.9067 L 16.3533 15.9067 L 18.7199 15.9067 L 18.7199 16.9067 Z M 17.8441 13.6364 C 18.4784 14.4104 18.9414 15.3101 19.2026 16.2762 L 18.2373 16.5372 C 18.013 15.7076 17.6154 14.9349 17.0706 14.2703 L 17.8441 13.6364 Z M 15.5227 11.7857 C 16.4186 12.2316 17.2098 12.8624 17.8441 13.6364 L 17.0706 14.2703 C 16.5259 13.6056 15.8465 13.0639 15.0771 12.681 L 15.5227 11.7857 Z M 17.6019 10.7486 C 17.0599 11.5195 16.3648 12.1703 15.56 12.6604 L 15.0399 11.8063 C 15.7273 11.3877 16.3209 10.8318 16.7838 10.1735 L 17.6019 10.7486 Z M 18.7098 8.18019 C 18.521 9.10338 18.1438 9.97773 17.6019 10.7486 L 16.7838 10.1735 C 17.2467 9.51507 17.5688 8.76831 17.7301 7.97982 L 18.7098 8.18019 Z M 16.0733 7.58 L 18.2199 7.58 L 18.2199 8.58 L 16.0733 8.58 L 16.0733 7.58 Z M 12.8536 10.8762 C 13.3501 10.8232 13.9226 10.4996 14.4449 9.94981 C 14.9606 9.40692 15.3817 8.68939 15.5921 7.94418 L 16.5545 8.21582 C 16.2981 9.12394 15.7926 9.98308 15.17 10.6385 C 14.5539 11.287 13.7765 11.7834 12.9596 11.8705 L 12.8536 10.8762 Z M 13.4066 8.08667 L 13.4066 11.3733 L 12.4066 11.3733 L 12.4066 8.08667 L 13.4066 8.08667 Z M 10.7533 7.58667 L 12.9066 7.58667 L 12.9066 8.58667 L 10.7533 8.58667 L 10.7533 7.58667 Z M 10.2533 13.8467 L 10.2533 8.08667 L 11.2533 8.08667 L 11.2533 13.8467 L 10.2533 13.8467 Z M 8.16651 8.07705 C 8.23719 11.7526 9.83535 13.1018 10.8745 13.3616 L 10.632 14.3317 C 9.00453 13.9249 7.24268 12.0474 7.1667 8.09628 L 8.16651 8.07705 Z M 5.37327 7.58667 L 7.6666 7.58667 L 7.6666 8.58667 L 5.37327 8.58667 L 5.37327 7.58667 Z" stroke-linecap="round" />
</g>
</svg>